<?xml version="1.0" encoding="iso-8859-1"?>
<!-- Generator: Adobe Illustrator 19.0.0, SVG Export Plug-In . SVG Version: 6.00 Build 0)  -->
<svg xmlns="http://www.w3.org/2000/svg" xmlns:xlink="http://www.w3.org/1999/xlink" version="1.1" id="Capa_1" x="0px" y="0px" viewBox="0 0 511.999 511.999" style="enable-background:new 0 0 511.999 511.999;" xml:space="preserve" width="512px" height="512px">
<g>
	<g>
		<circle cx="145.378" cy="179.965" r="9.059" fill="#FFFFFF"/>
	</g>
</g>
<g>
	<g>
		<circle cx="227.951" cy="131.999" r="9.059" fill="#FFFFFF"/>
	</g>
</g>
<g>
	<g>
		<path d="M145.375,233.744c-58.36,0-105.84,47.48-105.84,105.841c0,24.308,8.483,48.068,23.887,66.904    c2.623,3.206,7.346,3.68,10.553,1.058s3.68-7.346,1.058-10.553c-13.219-16.165-20.499-36.553-20.499-57.409    c0-50.091,40.752-90.843,90.842-90.843s90.842,40.752,90.842,90.843c0,50.09-40.752,90.842-90.842,90.842    c-17.786,0-35.026-5.169-49.858-14.947c-3.458-2.28-8.109-1.325-10.389,2.133c-2.28,3.458-1.325,8.109,2.133,10.389    c17.289,11.398,37.384,17.424,58.113,17.424c58.36,0,105.84-47.48,105.84-105.84C251.215,281.224,203.735,233.744,145.375,233.744    z" fill="#FFFFFF"/>
	</g>
</g>
<g>
	<g>
		<path d="M419.045,119.137c-15.926-9.082-34.001-13.884-52.272-13.884c-38.031,0-73.323,20.456-92.103,53.387    c-13.985,24.521-17.575,53.059-10.105,80.356s25.087,50.033,49.609,64.018c15.925,9.082,33.999,13.884,52.27,13.884    c38.031,0,73.323-20.456,92.104-53.387C487.46,212.816,469.74,148.05,419.045,119.137z M445.518,256.081    c-16.119,28.262-46.418,45.818-79.074,45.818c-40.498,0-76.753-27.903-87.412-66.861    c-15.623-57.097,28.773-114.786,87.741-114.786C435.338,120.253,479.314,196.826,445.518,256.081z" fill="#FFFFFF"/>
	</g>
</g>
<g>
	<g>
		<path d="M506.766,172.725c-10.258-37.493-34.456-68.72-68.136-87.929c-21.873-12.476-46.698-19.069-71.79-19.069    c-27.595,0-54.136,7.845-76.843,21.91c0,0-24.19-13.797-24.192-13.798c-16.758-9.558-38.741-3.532-48.292,13.214l-5.982,10.489    l-8.823-5.033c0.337-2.528,0.526-5.071,0.526-7.61c0-31.904-25.956-57.86-57.859-57.86c-31.904,0-57.86,25.956-57.86,57.86    c0,23.514,14.579,44.781,36.066,53.571v10.161h-12.076c-19.52,0-35.402,15.882-35.402,35.402v27.769    C30.808,236.454,0,284.489,0,339.586C0,419.745,65.215,484.96,145.375,484.96c80.159,0,145.374-65.215,145.374-145.375    c0-1.526-0.031-3.044-0.079-4.559c1.298,0.795,2.601,1.579,3.917,2.329c21.872,12.474,46.696,19.068,71.793,19.068    c52.235,0,100.713-28.099,126.508-73.327C512.096,249.417,517.026,210.219,506.766,172.725z M230.543,94.484    c5.5-9.642,18.201-13.108,27.833-7.616l17.967,10.248c-13.219,10.417-24.373,22.95-33.301,37.393    c-10.122,16.375-17.04,34.67-20.044,53.696c-0.167,1.058-0.322,2.118-0.465,3.179l-7.884-4.497c0-3.036-0.028-6.021-0.55-9.024    c-1.803-10.363-8.07-19.304-17.132-24.504c0.007-0.011,0.013-0.023,0.02-0.034C196.985,153.324,230.531,94.505,230.543,94.484z     M221.333,215.683c-2.192-1.349-4.419-2.647-6.686-3.881v-7.649l6.614,3.773C221.213,210.504,221.242,213.091,221.333,215.683z     M204.1,110.57l-6.731,11.806c0,0-31.578-18.011-31.58-18.012c-0.053-0.031-0.104-0.072-0.156-0.104    c-0.604-1.521-1.372-2.96-2.287-4.292c-0.007-0.01-0.015-0.021-0.022-0.031c-0.271-0.393-0.555-0.774-0.85-1.147    c-0.036-0.046-0.067-0.095-0.104-0.14c-0.039-1.237,0.261-2.462,0.885-3.555c0.871-1.526,2.296-2.626,3.937-3.126    c1.763-0.537,3.731-0.324,5.332,0.59L204.1,110.57z M189.938,135.402l-5.982,10.489c-0.537,0.942-1.014,1.912-1.461,2.893    c-1.072-0.097-2.155-0.154-3.252-0.154h-12.076v-10.174c4.978-2.036,9.671-4.77,13.916-8.103L189.938,135.402z M102.514,84.899    c0-23.634,19.227-42.862,42.861-42.862c23.417,0,42.509,18.878,42.856,42.215l-8.275-4.72c-2.907-1.658-6.224-2.649-9.567-2.826    c-0.056-0.003-0.111-0.01-0.166-0.013c-3.45-10.421-13.285-17.96-24.847-17.96c-14.427,0-26.165,11.737-26.165,26.165    c0,6.551,2.466,12.761,6.732,17.498c-1.55,3.046-2.362,6.466-2.362,9.882v9.491C110.81,114.161,102.514,100.166,102.514,84.899z     M150.227,87.666c-0.569,0.997-1.031,2.034-1.431,3.089c-1.116-0.176-2.258-0.27-3.422-0.27c-2.983,0-5.827,0.604-8.417,1.693    c-1.733-2.001-2.748-4.565-2.748-7.278c0-6.156,5.009-11.166,11.166-11.166c4.853,0,8.981,3.117,10.517,7.448    C153.623,82.921,151.685,85.111,150.227,87.666z M152.169,112.278v36.352H138.58c0,0,0-36.348,0-36.352    c0-3.687,3.113-6.794,6.794-6.794C149.004,105.484,152.169,108.641,152.169,112.278z M91.102,184.032    c0-11.25,9.153-20.403,20.403-20.403h67.738c11.052,0,20.403,9.343,20.403,20.403v20.684c-0.208-0.084-0.419-0.162-0.627-0.246    c-17.003-6.809-35.337-10.26-53.646-10.26c-18.51,0-37.108,3.552-54.273,10.506V184.032z M145.375,469.961    c-71.89,0-130.376-58.486-130.376-130.375c0-70.804,59.561-130.376,130.375-130.376c70.349,0,130.375,60.131,130.375,130.376    C275.75,411.475,217.264,469.961,145.375,469.961z M479.86,275.667c-35.085,61.515-116.337,83.738-177.841,48.66    c-4.557-2.599-9-5.505-13.247-8.661c-0.007-0.039-0.014-0.078-0.021-0.117c-0.705-4.219-1.59-8.409-2.667-12.549    c-7.063-27.273-21.903-51.807-42.945-70.915c-0.037-0.033-0.073-0.067-0.109-0.1c-1.88-1.704-3.801-3.366-5.766-4.972    c-0.953-7.621-1.217-15.217-0.847-22.736c0.006-0.07,0.021-0.138,0.024-0.208c1.206-23.146,8.715-45.643,21.471-64.981    c0.015-0.023,0.031-0.046,0.046-0.069c24.014-36.164,64.963-58.293,108.882-58.293c58.132,0,110.161,40.046,125.46,95.959    C501.502,210.315,497.084,245.467,479.86,275.667z" fill="#FFFFFF"/>
	</g>
</g>
<g>
</g>
<g>
</g>
<g>
</g>
<g>
</g>
<g>
</g>
<g>
</g>
<g>
</g>
<g>
</g>
<g>
</g>
<g>
</g>
<g>
</g>
<g>
</g>
<g>
</g>
<g>
</g>
<g>
</g>
</svg>
